<svg width="85" height="85" viewBox="0 0 85 85" fill="none" xmlns="http://www.w3.org/2000/svg">
<path fill-rule="evenodd" clip-rule="evenodd" d="M45.1188 1.71144C43.5567 0.149346 41.0241 0.149347 39.462 1.71144L1.71149 39.4619C0.149392 41.024 0.149393 43.5567 1.71149 45.1188L39.462 82.8692C41.0241 84.4313 43.5567 84.4313 45.1188 82.8692L82.8693 45.1188C84.4314 43.5567 84.4314 41.024 82.8693 39.4619L45.1188 1.71144ZM45.1188 22.7608C43.5567 21.1988 41.0241 21.1988 39.462 22.7608L22.7609 39.4619C21.1988 41.024 21.1988 43.5567 22.7609 45.1188L39.462 61.8198C41.0241 63.3819 43.5567 63.3819 45.1188 61.8198L61.8199 45.1188C63.382 43.5567 63.382 41.024 61.8199 39.4619L45.1188 22.7608Z" fill="#D9D9D9"/>
</svg>
