<svg width="84" height="84" viewBox="0 0 84 84" fill="none" xmlns="http://www.w3.org/2000/svg">
<path fill-rule="evenodd" clip-rule="evenodd" d="M44.5789 1.17157C43.0168 -0.390525 40.4841 -0.390524 38.922 1.17157L1.17157 38.922C-0.390525 40.4841 -0.390524 43.0168 1.17157 44.5789L38.922 82.3294C40.4841 83.8915 43.0168 83.8915 44.5789 82.3294L82.3294 44.5789C83.8915 43.0168 83.8915 40.4841 82.3294 38.922L44.5789 1.17157ZM44.5789 22.221C43.0168 20.6589 40.4841 20.6589 38.922 22.221L22.221 38.922C20.6589 40.4841 20.6589 43.0168 22.221 44.5789L38.922 61.28C40.4841 62.8421 43.0168 62.8421 44.5789 61.28L61.28 44.5789C62.8421 43.0168 62.8421 40.4841 61.28 38.922L44.5789 22.221Z" fill="#2C0F69"/>
</svg>
